<svg
  version="1.1"
  xmlns="http://www.w3.org/2000/svg"
  xmlns:xlink="http://www.w3.org/1999/xlink"
  x="0px"
  y="0px"
  viewBox="0 0 30 30"
  style="enable-background: new 0 0 30 30"
  xml:space="preserve"
>
  <path
    class="st0"
    d="M29.62,5.9c-1.08,0.48-2.23,0.8-3.45,0.95c1.25-0.75,2.19-1.94,2.64-3.33c-1.18,0.7-2.47,1.2-3.81,1.46
	C24.1,4,22.91,3.36,21.6,3.14c-1.3-0.22-2.64,0.01-3.81,0.63C16.63,4.4,15.7,5.4,15.15,6.61c-0.54,1.21-0.68,2.57-0.37,3.86
	c-2.39-0.12-4.72-0.74-6.85-1.83C5.8,7.56,3.92,6.03,2.41,4.17C1.9,5.06,1.6,6.1,1.6,7.2c0,0.99,0.24,1.97,0.71,2.84
	c0.47,0.87,1.14,1.62,1.96,2.17c-0.95-0.03-1.88-0.29-2.72-0.75v0.08c0,1.39,0.48,2.74,1.36,3.82c0.88,1.08,2.1,1.82,3.46,2.09
	c-0.88,0.24-1.81,0.28-2.71,0.1c0.38,1.2,1.13,2.24,2.13,2.99s2.22,1.17,3.47,1.19c-2.13,1.68-4.75,2.58-7.45,2.58
	c-0.48,0-0.96-0.03-1.43-0.08c2.74,1.77,5.94,2.71,9.2,2.71c11.04,0,17.07-9.18,17.07-17.14c0-0.26-0.01-0.52-0.02-0.78
	C27.8,8.16,28.82,7.11,29.62,5.9L29.62,5.9z"
  />
</svg>
