<svg
                  version="1.1"
                  xmlns="http://www.w3.org/2000/svg"
                  xmlns:xlink="http://www.w3.org/1999/xlink"
                  x="0px"
                  y="0px"
                  viewBox="0 0 30 30"
                  style="enable-background:new 0 0 30 30;"
                  xml:space="preserve"
                >
                  <path
                    class="st0"
                    d="M27.64,9.76c-0.01-1.07-0.21-2.14-0.59-3.14C26.72,5.77,26.22,5,25.58,4.35c-0.64-0.64-1.41-1.15-2.25-1.47
	c-0.99-0.37-2.03-0.57-3.09-0.6C18.88,2.22,18.45,2.21,15,2.21s-3.89,0-5.24,0.08c-1.06,0.02-2.1,0.22-3.09,0.6
	C5.82,3.21,5.06,3.71,4.42,4.35C3.78,5,3.28,5.77,2.95,6.61c-0.37,0.99-0.57,2.04-0.59,3.1c-0.06,1.37-0.08,1.8-0.08,5.26
	c0,3.46,0,3.91,0.08,5.26c0.02,1.06,0.22,2.11,0.59,3.1c0.33,0.85,0.83,1.62,1.47,2.26c0.64,0.64,1.41,1.14,2.25,1.47
	c0.99,0.39,2.03,0.6,3.09,0.64c1.36,0.06,1.79,0.08,5.24,0.08s3.89,0,5.24-0.08c1.06-0.02,2.1-0.22,3.09-0.59
	c0.84-0.33,1.61-0.83,2.25-1.47c0.64-0.64,1.14-1.41,1.47-2.26c0.37-0.99,0.57-2.04,0.59-3.1c0.06-1.36,0.08-1.8,0.08-5.26
	C27.72,11.56,27.72,11.12,27.64,9.76L27.64,9.76z M14.99,21.53c-3.61,0-6.53-2.94-6.53-6.56c0-3.62,2.92-6.56,6.53-6.56
	c1.73,0,3.39,0.69,4.62,1.92c1.23,1.23,1.91,2.9,1.91,4.64c0,1.74-0.69,3.41-1.91,4.64C18.38,20.84,16.72,21.53,14.99,21.53
	L14.99,21.53z M21.78,9.7c-0.2,0-0.4-0.04-0.58-0.12c-0.18-0.08-0.35-0.19-0.49-0.33c-0.14-0.14-0.25-0.31-0.33-0.5
	c-0.08-0.19-0.12-0.38-0.12-0.59c0-0.2,0.04-0.4,0.12-0.58c0.08-0.19,0.19-0.35,0.33-0.5c0.14-0.14,0.31-0.25,0.49-0.33
	c0.18-0.08,0.38-0.12,0.58-0.12c0.2,0,0.4,0.04,0.58,0.12c0.18,0.08,0.35,0.19,0.49,0.33c0.14,0.14,0.25,0.31,0.33,0.5
	c0.08,0.19,0.12,0.38,0.12,0.58C23.3,9.01,22.62,9.7,21.78,9.7z M14.99,19.23c2.34,0,4.24-1.91,4.24-4.26s-1.9-4.26-4.24-4.26
	c-2.34,0-4.24,1.91-4.24,4.26S12.65,19.23,14.99,19.23z"
                  />
                </svg>