                <svg
                  version="1.1"
                  xmlns="http://www.w3.org/2000/svg"
                  xmlns:xlink="http://www.w3.org/1999/xlink"
                  x="0px"
                  y="0px"
                  viewBox="0 0 30 30"
                  style="enable-background:new 0 0 30 30;"
                  xml:space="preserve"
                >
                  <path
                    class="st0"
                    d="M8.15,27.59v-17H2.77v17H8.15z M5.46,8.28c1.88,0,3.04-1.31,3.04-2.94C8.47,3.67,7.34,2.41,5.5,2.41
	c-1.84,0-3.04,1.27-3.04,2.94c0,1.63,1.17,2.94,2.97,2.94H5.46L5.46,8.28z M11.13,27.59h5.38V18.1c0-0.51,0.03-1.02,0.18-1.38
	c0.39-1.01,1.27-2.07,2.76-2.07c1.95,0,2.72,1.56,2.72,3.84v9.09h5.38v-9.74c0-5.22-2.65-7.65-6.19-7.65c-2.9,0-4.18,1.7-4.88,2.86
	h0.04V10.6h-5.38C11.2,12.19,11.13,27.59,11.13,27.59L11.13,27.59z"
                  />
                </svg>