<svg width="53" height="53" viewBox="0 0 53 53" fill="none" xmlns="http://www.w3.org/2000/svg">
<path d="M43.5682 8.55708L43.6786 8.91041L44.8976 13.1548C45.008 13.5396 44.9754 13.9513 44.8057 14.3139C44.636 14.6764 44.3407 14.9652 43.9745 15.1269L43.7625 15.2042L20.0738 21.9948H44.7188C45.1193 21.9955 45.506 22.1413 45.8072 22.4052C46.1085 22.6691 46.3039 23.0333 46.3573 23.4302L46.3728 23.651V42.4197C46.3729 43.9661 45.783 45.4544 44.7234 46.5808C43.6638 47.7073 42.2145 48.3871 40.6709 48.4815L40.2999 48.4926H12.6979C11.1515 48.4927 9.66321 47.9028 8.53676 46.8432C7.41031 45.7836 6.73052 44.3342 6.63604 42.7907L6.625 42.4197V23.8873L5.47225 19.866C5.04622 18.3793 5.20337 16.7862 5.91166 15.4115C6.61995 14.0368 7.82601 12.984 9.28383 12.468L9.63717 12.3532L36.1681 4.7477C37.6547 4.32167 39.2478 4.47882 40.6226 5.18711C41.9973 5.8954 43.05 7.10146 43.566 8.55929L43.5682 8.55708ZM13.8529 14.5902L10.5492 15.5398C9.89307 15.7281 9.32996 16.1528 8.96861 16.7319C8.60726 17.3111 8.47331 18.0036 8.59263 18.6757L8.65888 18.9517L9.41854 21.6039L10.07 21.4162L13.8529 14.5925V14.5902ZM24.3557 11.5803L18.3557 13.3006L14.5706 20.1243L20.5728 18.4062L24.3557 11.5803ZM34.863 8.56591L28.8607 10.2884L25.0778 17.1122L31.0757 15.3941L34.863 8.56591ZM38.9418 8.05137L35.5829 14.1022L41.2561 12.4747L40.4964 9.82466C40.3846 9.43247 40.1872 9.06998 39.9183 8.76333C39.6495 8.45668 39.3159 8.21351 38.9418 8.05137Z" fill="#EA550F"/>
</svg>
