<svg width="61" height="46" viewBox="0 0 61 46" fill="none" xmlns="http://www.w3.org/2000/svg">
<path d="M9.47595 15.4816C12.3334 13.6461 14.7038 14.9119 17.8675 17.9398C18.2228 18.2815 18.7005 17.8815 18.9731 17.6866C19.2426 17.4891 23.4169 14.3828 23.6221 14.2411C23.8243 14.0917 24.0693 13.8132 23.7477 13.5018C22.9731 12.7098 22.2145 11.9072 21.4722 11.0942C15.935 5.10696 36.6198 1.04623 33.4439 0.982941C31.8269 0.947498 25.3403 0.884207 24.3694 0.972814C20.4401 1.31458 15.5062 4.35 13.0224 5.76518C9.77302 7.60314 8.56023 8.68161 8.36116 8.83098C7.44237 9.49426 8.21415 11.0259 6.54809 12.2335C4.78709 13.5069 3.68762 12.5423 2.66777 13.2816C2.16244 13.6512 0.747512 14.5271 0.343248 14.8183C-0.0640788 15.1145 -0.137581 15.6132 0.278933 16.0107C0.278933 16.0107 4.15007 19.5448 4.47471 19.8587C4.79628 20.1676 5.67219 20.4359 6.21121 20.0385C6.75329 19.6435 8.14677 18.6385 8.37953 18.4613C8.61841 18.2942 8.2264 16.2815 9.47595 15.4816ZM26.9573 16.7904C26.5898 16.4385 26.1335 16.4284 25.7415 16.717L21.3497 19.8866C21.1801 20.0138 21.0768 20.1903 21.0614 20.3791C21.046 20.568 21.1196 20.7544 21.267 20.8992L46.6683 44.7952C47.2624 45.3598 48.2914 45.418 48.9683 44.9294L51.939 42.8712C52.266 42.6332 52.4661 42.2981 52.496 41.9388C52.5258 41.5795 52.3829 41.2249 52.0983 40.9522L26.9573 16.7904ZM60.8267 6.62087C60.6001 5.37025 59.816 5.631 59.4087 6.16011C59.0014 6.69429 57.2006 8.94996 56.4594 9.97274C55.7244 10.9854 53.9113 12.9879 50.5363 11.0107C47.0205 8.95756 48.2424 7.52466 48.855 6.56011C49.4705 5.5905 51.3602 2.87153 51.6327 2.53483C51.9053 2.19306 51.5868 1.20066 50.4965 1.61585C49.4032 2.03103 42.7696 4.21076 41.8508 7.33732C40.9106 10.517 42.6379 13.3601 39.2476 16.1828L35.1345 19.7271L39.2659 23.6916L44.3315 19.717C45.5382 18.7144 48.1169 17.7398 50.4506 18.1803C55.4518 19.1144 58.1806 17.5625 59.8252 14.9955C61.3014 12.7018 61.0564 7.87149 60.8267 6.62087ZM8.26315 41.2105C7.95681 41.4656 7.7849 41.8105 7.7849 42.1699C7.7849 42.5294 7.95681 42.8743 8.26315 43.1294L11.1757 45.4838C11.8127 46.0129 12.8234 45.7902 13.4604 45.2611L28.4886 33.0485L23.8855 28.7093L8.26315 41.2105Z" fill="#EA550F"/>
</svg>
