<svg width="92" height="89" viewBox="0 0 92 89" fill="none" xmlns="http://www.w3.org/2000/svg">
<g clip-path="url(#clip0_232_434)">
<path fill-rule="evenodd" clip-rule="evenodd" d="M9.32642e-06 44.2461C-0.00147624 52.5087 2.42935 60.6048 7.01421 67.6075C11.5991 74.6102 18.1527 80.2365 25.9248 83.8425L3.98284 26.3381C1.35308 31.9717 -0.00410498 38.0728 9.32642e-06 44.2425V44.2461ZM77.05 42.0241C77.05 36.5865 75.0068 32.8208 73.255 29.8911C70.9282 26.2611 68.7393 23.1958 68.7393 19.5695C68.7393 15.5251 71.944 11.7595 76.4635 11.7595C76.6667 11.7595 76.8622 11.7851 77.0577 11.7961C68.5873 4.3545 57.5011 0.231663 46 0.246132C29.9268 0.246132 15.7933 8.13313 7.56318 20.0755C8.64418 20.1121 9.66384 20.1268 10.5263 20.1268C15.3372 20.1268 22.7853 19.5695 22.7853 19.5695C25.2617 19.4301 25.5568 22.9171 23.0767 23.1958C23.0767 23.1958 20.585 23.4745 17.8135 23.6138L34.5652 71.2731L44.6315 42.3945L37.467 23.6175C35.8531 23.5211 34.2425 23.3804 32.637 23.1958C30.1607 23.0565 30.452 19.4301 32.9322 19.5695C32.9322 19.5695 40.5298 20.1305 45.0455 20.1305C49.8602 20.1305 57.3083 19.5695 57.3083 19.5695C59.7885 19.4301 60.0798 22.9171 57.5997 23.1958C57.5997 23.1958 55.108 23.4745 52.3365 23.6138L68.9617 70.9101L73.5502 56.2471C75.5358 50.1605 77.05 45.7898 77.05 42.0241ZM46.805 48.0925L33.005 86.4495C42.2705 89.0624 52.1612 88.8161 61.272 85.7455C61.1464 85.5526 61.0374 85.3503 60.9462 85.1405L46.805 48.0961V48.0925ZM86.365 23.1335C86.5605 24.5378 86.6717 26.0375 86.6717 27.6581C86.6717 32.1205 85.7977 37.1401 83.1757 43.4175L69.1227 82.2731C76.0826 78.4051 81.8587 72.857 85.8735 66.1836C89.8883 59.5102 92.0009 51.9456 92 44.2461C92 36.5975 89.9568 29.4071 86.365 23.1371" fill="#EA550F"/>
</g>
<defs>
<clipPath id="clip0_232_434">
<rect width="92" height="88" fill="white" transform="translate(0 0.246094)"/>
</clipPath>
</defs>
</svg>
