<svg width="45" height="44" viewBox="0 0 45 44" fill="none" xmlns="http://www.w3.org/2000/svg">
<path d="M29.8079 26.9447C29.4818 26.859 27.4205 26.1123 28.7085 22.9655H28.6901C32.0476 20.1863 34.6135 15.7141 34.6135 11.3112C34.6135 4.54121 29.0121 0.992188 22.5021 0.992188C15.9879 0.992188 10.4173 4.53956 10.4173 11.3112C10.4173 15.7323 12.9688 20.2225 16.3469 22.9952C17.6636 25.7711 15.309 26.8013 14.8168 26.9464C7.99909 28.9278 0 32.5394 0 36.105V37.4418C0 42.2997 11.7197 43.4041 22.5656 43.4041C33.428 43.4041 45 42.2997 45 37.4418V36.105C45 32.4323 36.9619 28.8487 29.8079 26.9447Z" fill="#EA550F"/>
</svg>
